<mxfile host="app.diagrams.net" modified="2024-05-12T08:35:41.997Z" agent="Mozilla/5.0 (Windows NT 10.0; Win64; x64) AppleWebKit/537.36 (KHTML, like Gecko) Chrome/124.0.0.0 Safari/537.36" etag="Vz6I0pkvIOAQreLGxCyC" version="24.4.0" type="device">
  <diagram id="C5RBs43oDa-KdzZeNtuy" name="Page-1">
    <mxGraphModel dx="4780" dy="2487" grid="1" gridSize="10" guides="1" tooltips="1" connect="1" arrows="1" fold="1" page="1" pageScale="1" pageWidth="2336" pageHeight="1654" background="#ffffff" math="0" shadow="0">
      <root>
        <mxCell id="WIyWlLk6GJQsqaUBKTNV-0" />
        <mxCell id="WIyWlLk6GJQsqaUBKTNV-1" parent="WIyWlLk6GJQsqaUBKTNV-0" />
        <mxCell id="WIyWlLk6GJQsqaUBKTNV-5" value="" style="edgeStyle=orthogonalEdgeStyle;rounded=0;html=1;jettySize=auto;orthogonalLoop=1;fontSize=11;endArrow=block;endFill=0;endSize=8;strokeWidth=1;shadow=0;labelBackgroundColor=none;" parent="WIyWlLk6GJQsqaUBKTNV-1" source="WIyWlLk6GJQsqaUBKTNV-6" target="N1uq7PIu6tmpCPChvRgj-2" edge="1">
          <mxGeometry y="10" relative="1" as="geometry">
            <mxPoint as="offset" />
            <mxPoint x="1316.25" y="410" as="targetPoint" />
          </mxGeometry>
        </mxCell>
        <mxCell id="N1uq7PIu6tmpCPChvRgj-9" style="edgeStyle=orthogonalEdgeStyle;rounded=0;orthogonalLoop=1;jettySize=auto;html=1;exitX=0;exitY=0.5;exitDx=0;exitDy=0;" edge="1" parent="WIyWlLk6GJQsqaUBKTNV-1" source="WIyWlLk6GJQsqaUBKTNV-6">
          <mxGeometry relative="1" as="geometry">
            <mxPoint x="921.25" y="409.79999999999995" as="targetPoint" />
          </mxGeometry>
        </mxCell>
        <mxCell id="WIyWlLk6GJQsqaUBKTNV-6" value="Is production phase?" style="rhombus;whiteSpace=wrap;html=1;shadow=0;fontFamily=Helvetica;fontSize=12;align=center;strokeWidth=1;spacing=6;spacingTop=-4;" parent="WIyWlLk6GJQsqaUBKTNV-1" vertex="1">
          <mxGeometry x="1031.25" y="360" width="170" height="100" as="geometry" />
        </mxCell>
        <mxCell id="N1uq7PIu6tmpCPChvRgj-1" style="edgeStyle=orthogonalEdgeStyle;rounded=0;orthogonalLoop=1;jettySize=auto;html=1;" edge="1" parent="WIyWlLk6GJQsqaUBKTNV-1" source="N1uq7PIu6tmpCPChvRgj-0">
          <mxGeometry relative="1" as="geometry">
            <mxPoint x="1116.25" y="360" as="targetPoint" />
          </mxGeometry>
        </mxCell>
        <mxCell id="N1uq7PIu6tmpCPChvRgj-0" value="START" style="ellipse;whiteSpace=wrap;html=1;" vertex="1" parent="WIyWlLk6GJQsqaUBKTNV-1">
          <mxGeometry x="1046.25" y="250" width="140" height="60" as="geometry" />
        </mxCell>
        <mxCell id="N1uq7PIu6tmpCPChvRgj-85" style="edgeStyle=orthogonalEdgeStyle;rounded=0;orthogonalLoop=1;jettySize=auto;html=1;" edge="1" parent="WIyWlLk6GJQsqaUBKTNV-1" source="N1uq7PIu6tmpCPChvRgj-2" target="N1uq7PIu6tmpCPChvRgj-78">
          <mxGeometry relative="1" as="geometry" />
        </mxCell>
        <mxCell id="N1uq7PIu6tmpCPChvRgj-2" value="Input digital pathology lung slide images as normal size images&amp;nbsp;" style="shape=parallelogram;perimeter=parallelogramPerimeter;whiteSpace=wrap;html=1;fixedSize=1;" vertex="1" parent="WIyWlLk6GJQsqaUBKTNV-1">
          <mxGeometry x="1731.25" y="375" width="210" height="70" as="geometry" />
        </mxCell>
        <mxCell id="N1uq7PIu6tmpCPChvRgj-3" value="No" style="text;html=1;align=center;verticalAlign=middle;resizable=0;points=[];autosize=1;strokeColor=none;fillColor=none;" vertex="1" parent="WIyWlLk6GJQsqaUBKTNV-1">
          <mxGeometry x="1471.25" y="375" width="40" height="30" as="geometry" />
        </mxCell>
        <mxCell id="N1uq7PIu6tmpCPChvRgj-6" value="" style="endArrow=none;dashed=1;html=1;rounded=0;" edge="1" parent="WIyWlLk6GJQsqaUBKTNV-1">
          <mxGeometry width="50" height="50" relative="1" as="geometry">
            <mxPoint x="1841.25" y="375" as="sourcePoint" />
            <mxPoint x="1841.25" y="320" as="targetPoint" />
          </mxGeometry>
        </mxCell>
        <mxCell id="N1uq7PIu6tmpCPChvRgj-8" value="normal size images such as jpg, png, etc. Thus, no extractions are needed." style="rounded=0;whiteSpace=wrap;html=1;" vertex="1" parent="WIyWlLk6GJQsqaUBKTNV-1">
          <mxGeometry x="1752.5" y="260" width="170" height="60" as="geometry" />
        </mxCell>
        <mxCell id="N1uq7PIu6tmpCPChvRgj-17" value="" style="edgeStyle=orthogonalEdgeStyle;rounded=0;orthogonalLoop=1;jettySize=auto;html=1;" edge="1" parent="WIyWlLk6GJQsqaUBKTNV-1" source="N1uq7PIu6tmpCPChvRgj-10" target="N1uq7PIu6tmpCPChvRgj-16">
          <mxGeometry relative="1" as="geometry" />
        </mxCell>
        <mxCell id="N1uq7PIu6tmpCPChvRgj-10" value="Input digital pathology lung slide images as .svs file format&amp;nbsp;" style="shape=parallelogram;perimeter=parallelogramPerimeter;whiteSpace=wrap;html=1;fixedSize=1;" vertex="1" parent="WIyWlLk6GJQsqaUBKTNV-1">
          <mxGeometry x="721.25" y="375" width="210" height="70" as="geometry" />
        </mxCell>
        <mxCell id="N1uq7PIu6tmpCPChvRgj-11" value=".svs file format stands for standard virtual slides. Normally the file in this format is huge, approximately 2GB. In result, we need to divide svs files into smaller images before put it through any computational process." style="rounded=0;whiteSpace=wrap;html=1;" vertex="1" parent="WIyWlLk6GJQsqaUBKTNV-1">
          <mxGeometry x="431.25" y="363.13" width="220" height="93.75" as="geometry" />
        </mxCell>
        <mxCell id="N1uq7PIu6tmpCPChvRgj-14" value="" style="endArrow=none;dashed=1;html=1;rounded=0;exitX=1;exitY=0.5;exitDx=0;exitDy=0;" edge="1" parent="WIyWlLk6GJQsqaUBKTNV-1" source="N1uq7PIu6tmpCPChvRgj-11">
          <mxGeometry width="50" height="50" relative="1" as="geometry">
            <mxPoint x="681.25" y="460" as="sourcePoint" />
            <mxPoint x="731.25" y="410" as="targetPoint" />
          </mxGeometry>
        </mxCell>
        <mxCell id="N1uq7PIu6tmpCPChvRgj-15" value="Yes" style="text;html=1;align=center;verticalAlign=middle;resizable=0;points=[];autosize=1;strokeColor=none;fillColor=none;" vertex="1" parent="WIyWlLk6GJQsqaUBKTNV-1">
          <mxGeometry x="970" y="375" width="40" height="30" as="geometry" />
        </mxCell>
        <mxCell id="N1uq7PIu6tmpCPChvRgj-20" style="edgeStyle=orthogonalEdgeStyle;rounded=0;orthogonalLoop=1;jettySize=auto;html=1;" edge="1" parent="WIyWlLk6GJQsqaUBKTNV-1" source="N1uq7PIu6tmpCPChvRgj-16">
          <mxGeometry relative="1" as="geometry">
            <mxPoint x="631.25" y="580" as="targetPoint" />
          </mxGeometry>
        </mxCell>
        <mxCell id="N1uq7PIu6tmpCPChvRgj-16" value="Where should we extract smaller images?" style="rhombus;whiteSpace=wrap;html=1;" vertex="1" parent="WIyWlLk6GJQsqaUBKTNV-1">
          <mxGeometry x="742.5" y="520" width="167.5" height="120" as="geometry" />
        </mxCell>
        <mxCell id="N1uq7PIu6tmpCPChvRgj-25" value="user personal&amp;nbsp;&lt;div&gt;computer&lt;/div&gt;" style="text;html=1;align=center;verticalAlign=middle;resizable=0;points=[];autosize=1;strokeColor=none;fillColor=none;" vertex="1" parent="WIyWlLk6GJQsqaUBKTNV-1">
          <mxGeometry x="642.5" y="540" width="100" height="40" as="geometry" />
        </mxCell>
        <mxCell id="N1uq7PIu6tmpCPChvRgj-38" style="edgeStyle=orthogonalEdgeStyle;rounded=0;orthogonalLoop=1;jettySize=auto;html=1;entryX=0.5;entryY=0;entryDx=0;entryDy=0;" edge="1" parent="WIyWlLk6GJQsqaUBKTNV-1" source="N1uq7PIu6tmpCPChvRgj-28">
          <mxGeometry relative="1" as="geometry">
            <mxPoint x="531.2499999999998" y="690" as="targetPoint" />
          </mxGeometry>
        </mxCell>
        <mxCell id="N1uq7PIu6tmpCPChvRgj-28" value="read svs files using downloaded source code and extract smaller images out of it." style="rounded=0;whiteSpace=wrap;html=1;" vertex="1" parent="WIyWlLk6GJQsqaUBKTNV-1">
          <mxGeometry x="431.25" y="550" width="200" height="60" as="geometry" />
        </mxCell>
        <mxCell id="N1uq7PIu6tmpCPChvRgj-46" style="edgeStyle=orthogonalEdgeStyle;rounded=0;orthogonalLoop=1;jettySize=auto;html=1;" edge="1" parent="WIyWlLk6GJQsqaUBKTNV-1" source="N1uq7PIu6tmpCPChvRgj-41" target="N1uq7PIu6tmpCPChvRgj-45">
          <mxGeometry relative="1" as="geometry" />
        </mxCell>
        <mxCell id="N1uq7PIu6tmpCPChvRgj-41" value="Calculate the probability of possible abnormal features on each images." style="whiteSpace=wrap;html=1;rounded=0;" vertex="1" parent="WIyWlLk6GJQsqaUBKTNV-1">
          <mxGeometry x="180" y="740" width="160" height="60" as="geometry" />
        </mxCell>
        <mxCell id="N1uq7PIu6tmpCPChvRgj-55" style="edgeStyle=orthogonalEdgeStyle;rounded=0;orthogonalLoop=1;jettySize=auto;html=1;entryX=0.5;entryY=0;entryDx=0;entryDy=0;" edge="1" parent="WIyWlLk6GJQsqaUBKTNV-1" source="N1uq7PIu6tmpCPChvRgj-44" target="N1uq7PIu6tmpCPChvRgj-48">
          <mxGeometry relative="1" as="geometry" />
        </mxCell>
        <mxCell id="N1uq7PIu6tmpCPChvRgj-44" value="Specify position of possible abnormal features on each images" style="rounded=0;whiteSpace=wrap;html=1;" vertex="1" parent="WIyWlLk6GJQsqaUBKTNV-1">
          <mxGeometry x="716.25" y="740" width="160" height="60" as="geometry" />
        </mxCell>
        <mxCell id="N1uq7PIu6tmpCPChvRgj-45" value="Output probability of abnormal features" style="shape=display;whiteSpace=wrap;html=1;" vertex="1" parent="WIyWlLk6GJQsqaUBKTNV-1">
          <mxGeometry x="181.25" y="870" width="157.5" height="60" as="geometry" />
        </mxCell>
        <mxCell id="N1uq7PIu6tmpCPChvRgj-48" value="Calculate position of all possible abnormal features on original svs file&amp;nbsp;" style="whiteSpace=wrap;html=1;rounded=0;" vertex="1" parent="WIyWlLk6GJQsqaUBKTNV-1">
          <mxGeometry x="711.25" y="870" width="170" height="60" as="geometry" />
        </mxCell>
        <mxCell id="N1uq7PIu6tmpCPChvRgj-103" style="edgeStyle=orthogonalEdgeStyle;rounded=0;orthogonalLoop=1;jettySize=auto;html=1;" edge="1" parent="WIyWlLk6GJQsqaUBKTNV-1" source="N1uq7PIu6tmpCPChvRgj-50" target="N1uq7PIu6tmpCPChvRgj-65">
          <mxGeometry relative="1" as="geometry" />
        </mxCell>
        <mxCell id="N1uq7PIu6tmpCPChvRgj-50" value="Upload svs files to website" style="verticalLabelPosition=middle;verticalAlign=middle;html=1;shape=trapezoid;perimeter=trapezoidPerimeter;whiteSpace=wrap;size=0.23;arcSize=10;flipV=1;labelPosition=center;align=center;" vertex="1" parent="WIyWlLk6GJQsqaUBKTNV-1">
          <mxGeometry x="1088" y="550" width="141.25" height="70" as="geometry" />
        </mxCell>
        <mxCell id="N1uq7PIu6tmpCPChvRgj-57" style="edgeStyle=orthogonalEdgeStyle;rounded=0;orthogonalLoop=1;jettySize=auto;html=1;entryX=0;entryY=0.5;entryDx=0;entryDy=0;" edge="1" parent="WIyWlLk6GJQsqaUBKTNV-1" source="N1uq7PIu6tmpCPChvRgj-56" target="N1uq7PIu6tmpCPChvRgj-44">
          <mxGeometry relative="1" as="geometry" />
        </mxCell>
        <mxCell id="N1uq7PIu6tmpCPChvRgj-58" style="edgeStyle=orthogonalEdgeStyle;rounded=0;orthogonalLoop=1;jettySize=auto;html=1;entryX=1;entryY=0.5;entryDx=0;entryDy=0;" edge="1" parent="WIyWlLk6GJQsqaUBKTNV-1" source="N1uq7PIu6tmpCPChvRgj-56" target="N1uq7PIu6tmpCPChvRgj-41">
          <mxGeometry relative="1" as="geometry" />
        </mxCell>
        <mxCell id="N1uq7PIu6tmpCPChvRgj-56" value="Which deep learning models should we use on those images?" style="strokeWidth=2;html=1;shape=mxgraph.flowchart.decision;whiteSpace=wrap;" vertex="1" parent="WIyWlLk6GJQsqaUBKTNV-1">
          <mxGeometry x="436.25" y="697.5" width="190" height="145" as="geometry" />
        </mxCell>
        <mxCell id="N1uq7PIu6tmpCPChvRgj-59" value="YOLOv8-cls" style="text;html=1;align=center;verticalAlign=middle;resizable=0;points=[];autosize=1;strokeColor=none;fillColor=none;" vertex="1" parent="WIyWlLk6GJQsqaUBKTNV-1">
          <mxGeometry x="351.25" y="740" width="90" height="30" as="geometry" />
        </mxCell>
        <mxCell id="N1uq7PIu6tmpCPChvRgj-60" value="YOLOv9" style="text;html=1;align=center;verticalAlign=middle;resizable=0;points=[];autosize=1;strokeColor=none;fillColor=none;" vertex="1" parent="WIyWlLk6GJQsqaUBKTNV-1">
          <mxGeometry x="626.25" y="740" width="70" height="30" as="geometry" />
        </mxCell>
        <mxCell id="N1uq7PIu6tmpCPChvRgj-86" style="edgeStyle=orthogonalEdgeStyle;rounded=0;orthogonalLoop=1;jettySize=auto;html=1;" edge="1" parent="WIyWlLk6GJQsqaUBKTNV-1" source="N1uq7PIu6tmpCPChvRgj-61">
          <mxGeometry relative="1" as="geometry">
            <mxPoint x="796.25" y="1210" as="targetPoint" />
          </mxGeometry>
        </mxCell>
        <mxCell id="N1uq7PIu6tmpCPChvRgj-61" value="&lt;div style=&quot;line-height: 120%;&quot;&gt;&lt;span style=&quot;background-color: initial;&quot;&gt;&lt;font style=&quot;font-size: 12px;&quot;&gt;Output approximated images of original svs files with abnormal indications.&lt;/font&gt;&lt;/span&gt;&lt;/div&gt;" style="shape=display;whiteSpace=wrap;html=1;align=center;" vertex="1" parent="WIyWlLk6GJQsqaUBKTNV-1">
          <mxGeometry x="691.25" y="990" width="210" height="80" as="geometry" />
        </mxCell>
        <mxCell id="N1uq7PIu6tmpCPChvRgj-64" style="edgeStyle=orthogonalEdgeStyle;rounded=0;orthogonalLoop=1;jettySize=auto;html=1;entryX=0.501;entryY=-0.02;entryDx=0;entryDy=0;entryPerimeter=0;" edge="1" parent="WIyWlLk6GJQsqaUBKTNV-1" source="N1uq7PIu6tmpCPChvRgj-48">
          <mxGeometry relative="1" as="geometry">
            <mxPoint x="796.46" y="988.4000000000001" as="targetPoint" />
          </mxGeometry>
        </mxCell>
        <mxCell id="N1uq7PIu6tmpCPChvRgj-65" value="END" style="ellipse;whiteSpace=wrap;html=1;" vertex="1" parent="WIyWlLk6GJQsqaUBKTNV-1">
          <mxGeometry x="1088" y="1180" width="140" height="60" as="geometry" />
        </mxCell>
        <mxCell id="N1uq7PIu6tmpCPChvRgj-73" value="" style="endArrow=none;html=1;rounded=0;entryX=0;entryY=0;entryDx=83.4375;entryDy=60;entryPerimeter=0;" edge="1" parent="WIyWlLk6GJQsqaUBKTNV-1" target="N1uq7PIu6tmpCPChvRgj-45">
          <mxGeometry width="50" height="50" relative="1" as="geometry">
            <mxPoint x="261.25" y="1210" as="sourcePoint" />
            <mxPoint x="751.25" y="1200" as="targetPoint" />
          </mxGeometry>
        </mxCell>
        <mxCell id="N1uq7PIu6tmpCPChvRgj-74" value="" style="endArrow=classic;html=1;rounded=0;entryX=0;entryY=0.5;entryDx=0;entryDy=0;" edge="1" parent="WIyWlLk6GJQsqaUBKTNV-1" target="N1uq7PIu6tmpCPChvRgj-65">
          <mxGeometry width="50" height="50" relative="1" as="geometry">
            <mxPoint x="261.25" y="1210" as="sourcePoint" />
            <mxPoint x="751.25" y="1200" as="targetPoint" />
          </mxGeometry>
        </mxCell>
        <mxCell id="N1uq7PIu6tmpCPChvRgj-76" style="edgeStyle=orthogonalEdgeStyle;rounded=0;orthogonalLoop=1;jettySize=auto;html=1;" edge="1" source="N1uq7PIu6tmpCPChvRgj-78" parent="WIyWlLk6GJQsqaUBKTNV-1">
          <mxGeometry relative="1" as="geometry">
            <mxPoint x="1641.25" y="580" as="targetPoint" />
          </mxGeometry>
        </mxCell>
        <mxCell id="N1uq7PIu6tmpCPChvRgj-77" style="edgeStyle=orthogonalEdgeStyle;rounded=0;orthogonalLoop=1;jettySize=auto;html=1;" edge="1" source="N1uq7PIu6tmpCPChvRgj-78" parent="WIyWlLk6GJQsqaUBKTNV-1">
          <mxGeometry relative="1" as="geometry">
            <mxPoint x="2031.25" y="580" as="targetPoint" />
          </mxGeometry>
        </mxCell>
        <mxCell id="N1uq7PIu6tmpCPChvRgj-78" value="Where should we use deep learning model.&amp;nbsp;" style="rhombus;whiteSpace=wrap;html=1;" vertex="1" parent="WIyWlLk6GJQsqaUBKTNV-1">
          <mxGeometry x="1751.25" y="520" width="168.75" height="120" as="geometry" />
        </mxCell>
        <mxCell id="N1uq7PIu6tmpCPChvRgj-79" value="user personal&amp;nbsp;&lt;div&gt;computer&lt;/div&gt;" style="text;html=1;align=center;verticalAlign=middle;resizable=0;points=[];autosize=1;strokeColor=none;fillColor=none;" vertex="1" parent="WIyWlLk6GJQsqaUBKTNV-1">
          <mxGeometry x="1652.5" y="540" width="100" height="40" as="geometry" />
        </mxCell>
        <mxCell id="N1uq7PIu6tmpCPChvRgj-80" value="hosted website" style="text;html=1;align=center;verticalAlign=middle;resizable=0;points=[];autosize=1;strokeColor=none;fillColor=none;" vertex="1" parent="WIyWlLk6GJQsqaUBKTNV-1">
          <mxGeometry x="1920" y="550" width="100" height="30" as="geometry" />
        </mxCell>
        <mxCell id="N1uq7PIu6tmpCPChvRgj-81" value="Apply trained deep learning models on the images" style="rounded=0;whiteSpace=wrap;html=1;" vertex="1" parent="WIyWlLk6GJQsqaUBKTNV-1">
          <mxGeometry x="1441.25" y="550" width="200" height="60" as="geometry" />
        </mxCell>
        <mxCell id="N1uq7PIu6tmpCPChvRgj-106" style="edgeStyle=orthogonalEdgeStyle;rounded=0;orthogonalLoop=1;jettySize=auto;html=1;entryX=0.5;entryY=0;entryDx=0;entryDy=0;" edge="1" parent="WIyWlLk6GJQsqaUBKTNV-1" source="N1uq7PIu6tmpCPChvRgj-82" target="N1uq7PIu6tmpCPChvRgj-105">
          <mxGeometry relative="1" as="geometry" />
        </mxCell>
        <mxCell id="N1uq7PIu6tmpCPChvRgj-82" value="Upload svs files to website" style="verticalLabelPosition=middle;verticalAlign=middle;html=1;shape=trapezoid;perimeter=trapezoidPerimeter;whiteSpace=wrap;size=0.23;arcSize=10;flipV=1;labelPosition=center;align=center;" vertex="1" parent="WIyWlLk6GJQsqaUBKTNV-1">
          <mxGeometry x="2020" y="550" width="141.25" height="70" as="geometry" />
        </mxCell>
        <mxCell id="N1uq7PIu6tmpCPChvRgj-92" style="edgeStyle=orthogonalEdgeStyle;rounded=0;orthogonalLoop=1;jettySize=auto;html=1;entryX=0.524;entryY=-0.011;entryDx=0;entryDy=0;entryPerimeter=0;" edge="1" parent="WIyWlLk6GJQsqaUBKTNV-1" source="N1uq7PIu6tmpCPChvRgj-81">
          <mxGeometry relative="1" as="geometry">
            <mxPoint x="1541.29" y="714.1199999999999" as="targetPoint" />
          </mxGeometry>
        </mxCell>
        <mxCell id="N1uq7PIu6tmpCPChvRgj-93" value="A" style="verticalLabelPosition=bottom;verticalAlign=top;html=1;shape=mxgraph.flowchart.on-page_reference;fillColor=#f8cecc;strokeColor=#b85450;" vertex="1" parent="WIyWlLk6GJQsqaUBKTNV-1">
          <mxGeometry x="1521.25" y="710" width="40" height="40" as="geometry" />
        </mxCell>
        <mxCell id="N1uq7PIu6tmpCPChvRgj-97" style="edgeStyle=orthogonalEdgeStyle;rounded=0;orthogonalLoop=1;jettySize=auto;html=1;" edge="1" parent="WIyWlLk6GJQsqaUBKTNV-1" source="N1uq7PIu6tmpCPChvRgj-96">
          <mxGeometry relative="1" as="geometry">
            <mxPoint x="531.25" y="650" as="targetPoint" />
          </mxGeometry>
        </mxCell>
        <mxCell id="N1uq7PIu6tmpCPChvRgj-96" value="A" style="verticalLabelPosition=bottom;verticalAlign=top;html=1;shape=mxgraph.flowchart.on-page_reference;fillColor=#f8cecc;strokeColor=#b85450;" vertex="1" parent="WIyWlLk6GJQsqaUBKTNV-1">
          <mxGeometry x="411.25" y="630" width="40" height="40" as="geometry" />
        </mxCell>
        <mxCell id="N1uq7PIu6tmpCPChvRgj-99" style="edgeStyle=orthogonalEdgeStyle;rounded=0;orthogonalLoop=1;jettySize=auto;html=1;entryX=0.086;entryY=0.584;entryDx=0;entryDy=0;entryPerimeter=0;" edge="1" parent="WIyWlLk6GJQsqaUBKTNV-1" source="N1uq7PIu6tmpCPChvRgj-16" target="N1uq7PIu6tmpCPChvRgj-50">
          <mxGeometry relative="1" as="geometry" />
        </mxCell>
        <mxCell id="N1uq7PIu6tmpCPChvRgj-100" value="hosted website" style="text;html=1;align=center;verticalAlign=middle;resizable=0;points=[];autosize=1;strokeColor=none;fillColor=none;" vertex="1" parent="WIyWlLk6GJQsqaUBKTNV-1">
          <mxGeometry x="958" y="550" width="100" height="30" as="geometry" />
        </mxCell>
        <mxCell id="N1uq7PIu6tmpCPChvRgj-104" value="Cannot extract due to upload restriction on websites." style="text;html=1;align=center;verticalAlign=middle;resizable=0;points=[];autosize=1;strokeColor=none;fillColor=none;" vertex="1" parent="WIyWlLk6GJQsqaUBKTNV-1">
          <mxGeometry x="1160" y="920" width="300" height="30" as="geometry" />
        </mxCell>
        <mxCell id="N1uq7PIu6tmpCPChvRgj-113" style="edgeStyle=orthogonalEdgeStyle;rounded=0;orthogonalLoop=1;jettySize=auto;html=1;" edge="1" parent="WIyWlLk6GJQsqaUBKTNV-1" source="N1uq7PIu6tmpCPChvRgj-105" target="N1uq7PIu6tmpCPChvRgj-109">
          <mxGeometry relative="1" as="geometry" />
        </mxCell>
        <mxCell id="N1uq7PIu6tmpCPChvRgj-105" value="User make an API call to hosted deep learning models, which are trained YOLOv8-cls and YOLOv9." style="rounded=0;whiteSpace=wrap;html=1;" vertex="1" parent="WIyWlLk6GJQsqaUBKTNV-1">
          <mxGeometry x="1990.6200000000001" y="690" width="200" height="60" as="geometry" />
        </mxCell>
        <mxCell id="N1uq7PIu6tmpCPChvRgj-109" value="&lt;div style=&quot;line-height: 120%;&quot;&gt;&lt;span style=&quot;background-color: initial;&quot;&gt;&lt;font style=&quot;font-size: 12px;&quot;&gt;Display processed images from API call to user.&lt;/font&gt;&lt;/span&gt;&lt;/div&gt;" style="shape=display;whiteSpace=wrap;html=1;align=center;" vertex="1" parent="WIyWlLk6GJQsqaUBKTNV-1">
          <mxGeometry x="1985.62" y="850" width="210" height="80" as="geometry" />
        </mxCell>
        <mxCell id="N1uq7PIu6tmpCPChvRgj-115" value="" style="endArrow=none;html=1;rounded=0;entryX=0;entryY=0;entryDx=111.25;entryDy=80;entryPerimeter=0;" edge="1" parent="WIyWlLk6GJQsqaUBKTNV-1" target="N1uq7PIu6tmpCPChvRgj-109">
          <mxGeometry width="50" height="50" relative="1" as="geometry">
            <mxPoint x="2100" y="1210" as="sourcePoint" />
            <mxPoint x="1700" y="880" as="targetPoint" />
          </mxGeometry>
        </mxCell>
        <mxCell id="N1uq7PIu6tmpCPChvRgj-116" value="" style="endArrow=classic;html=1;rounded=0;entryX=1;entryY=0.5;entryDx=0;entryDy=0;" edge="1" parent="WIyWlLk6GJQsqaUBKTNV-1" target="N1uq7PIu6tmpCPChvRgj-65">
          <mxGeometry width="50" height="50" relative="1" as="geometry">
            <mxPoint x="2100" y="1210" as="sourcePoint" />
            <mxPoint x="1700" y="880" as="targetPoint" />
          </mxGeometry>
        </mxCell>
      </root>
    </mxGraphModel>
  </diagram>
</mxfile>
